<?xml version="1.0" encoding="utf-8"?>
<!-- Generator: Adobe Illustrator 26.3.1, SVG Export Plug-In . SVG Version: 6.00 Build 0)  -->
<svg version="1.1" id="Layer_1" xmlns="http://www.w3.org/2000/svg" xmlns:xlink="http://www.w3.org/1999/xlink" x="0px" y="0px"
	 viewBox="0 0 360 85.68" style="enable-background:new 0 0 360 85.68;" xml:space="preserve">
<style type="text/css">
	.st0{fill:#FFFFFF;}
	.st1{fill:none;stroke:#FFFFFF;stroke-width:1.0095;stroke-linecap:round;stroke-linejoin:round;stroke-miterlimit:10;}
</style>
<g>
	<path class="st0" d="M150.48,35.06c0-2.23,1.39-3.93,3.6-3.93c1.85,0,2.94,1.1,3.1,2.53h-1.51c-0.14-0.76-0.7-1.25-1.58-1.25
		c-1.39,0-2.05,1.15-2.05,2.65c0,1.53,0.8,2.63,2.06,2.63c0.89,0,1.52-0.54,1.62-1.32h1.49c-0.04,0.66-0.33,1.3-0.83,1.77
		c-0.51,0.48-1.24,0.8-2.28,0.8C151.98,38.94,150.48,37.31,150.48,35.06z"/>
	<path class="st0" d="M157.67,35.04c0-2.25,1.41-3.92,3.62-3.92c2.21,0,3.61,1.67,3.61,3.92s-1.4,3.91-3.61,3.91
		C159.07,38.95,157.67,37.29,157.67,35.04z M163.34,35.04c0-1.5-0.67-2.67-2.05-2.67c-1.38,0-2.08,1.17-2.08,2.67
		c0,1.49,0.7,2.66,2.08,2.66C162.67,37.7,163.34,36.54,163.34,35.04z"/>
	<path class="st0" d="M165.73,31.28h2.14l1.06,3.77c0.26,0.95,0.47,2.03,0.47,2.03h0.02c0,0,0.2-1.08,0.46-2.03l1.06-3.77h2.17v7.51
		h-1.42v-4.3c0-0.61,0.06-1.55,0.06-1.55h-0.02c0,0-0.17,0.88-0.33,1.43l-1.29,4.43h-1.46l-1.26-4.43
		c-0.16-0.54-0.33-1.43-0.33-1.43h-0.02c0,0,0.06,0.95,0.06,1.55v4.3h-1.4V31.28z"/>
	<path class="st0" d="M174.28,31.28h3.3c0.87,0,1.52,0.25,1.96,0.7c0.42,0.43,0.67,1.02,0.67,1.71c0,1.42-0.93,2.37-2.51,2.37h-1.85
		v2.72h-1.58V31.28z M175.85,34.82h1.57c0.8,0,1.22-0.44,1.22-1.12c0-0.7-0.44-1.1-1.2-1.1h-1.6V34.82z"/>
	<path class="st0" d="M180.95,36.37v-5.09h1.52v5.09c0,0.78,0.39,1.32,1.41,1.32c0.97,0,1.42-0.57,1.42-1.34v-5.07h1.52v5.09
		c0,1.61-0.99,2.54-2.91,2.54C181.97,38.91,180.95,38,180.95,36.37z"/>
	<path class="st0" d="M187.53,31.28h6.04v1.28h-2.26v6.23h-1.52v-6.23h-2.26V31.28z"/>
	<path class="st0" d="M194.33,31.28h5.52v1.28h-4v1.68h3.51v1.25h-3.51v2.03h4.03v1.27h-5.55V31.28z"/>
	<path class="st0" d="M200.83,31.28h3.44c1.45,0,2.41,0.84,2.41,2.09c0,0.88-0.41,1.55-1.38,1.82v0.03c0.69,0.2,1.05,0.6,1.14,1.51
		c0.1,1.06,0.06,1.87,0.33,1.98v0.07h-1.46c-0.19-0.08-0.21-0.92-0.27-1.73c-0.06-0.82-0.52-1.28-1.47-1.28h-1.23v3.01h-1.52V31.28z
		 M202.35,34.59h1.62c0.83,0,1.24-0.43,1.24-1.03c0-0.61-0.39-1.06-1.2-1.06h-1.66V34.59z"/>
	<path class="st0" d="M209.09,36.46h1.49c0.1,0.9,0.62,1.26,1.69,1.26c0.78,0,1.46-0.27,1.46-0.97c0-0.73-0.71-0.88-1.86-1.14
		c-1.34-0.3-2.57-0.66-2.57-2.22c0-1.48,1.21-2.25,2.88-2.25c1.69,0,2.78,0.83,2.9,2.34h-1.46c-0.08-0.76-0.67-1.13-1.45-1.13
		c-0.82,0-1.35,0.35-1.35,0.88c0,0.61,0.53,0.79,1.64,1.03c1.54,0.34,2.8,0.7,2.8,2.32c0,1.52-1.23,2.37-2.92,2.37
		C210.3,38.95,209.15,38.05,209.09,36.46z"/>
	<path class="st0" d="M216.17,31.28h5.52v1.28h-4v1.68h3.51v1.25h-3.51v2.03h4.03v1.27h-5.55V31.28z"/>
	<path class="st0" d="M222.19,35.06c0-2.23,1.39-3.93,3.6-3.93c1.85,0,2.94,1.1,3.1,2.53h-1.51c-0.14-0.76-0.7-1.25-1.59-1.25
		c-1.39,0-2.05,1.15-2.05,2.65c0,1.53,0.8,2.63,2.06,2.63c0.89,0,1.52-0.54,1.62-1.32h1.49c-0.04,0.66-0.33,1.3-0.83,1.77
		c-0.51,0.48-1.24,0.8-2.28,0.8C223.69,38.94,222.19,37.31,222.19,35.06z"/>
	<path class="st0" d="M229.63,36.37v-5.09h1.52v5.09c0,0.78,0.39,1.32,1.41,1.32c0.97,0,1.42-0.57,1.42-1.34v-5.07h1.52v5.09
		c0,1.61-0.99,2.54-2.91,2.54C230.65,38.91,229.63,38,229.63,36.37z"/>
	<path class="st0" d="M236.59,31.28h3.44c1.45,0,2.42,0.84,2.42,2.09c0,0.88-0.41,1.55-1.38,1.82v0.03c0.69,0.2,1.05,0.6,1.14,1.51
		c0.11,1.06,0.06,1.87,0.33,1.98v0.07h-1.46c-0.19-0.08-0.21-0.92-0.27-1.73c-0.06-0.82-0.53-1.28-1.47-1.28h-1.23v3.01h-1.52V31.28
		z M238.11,34.59h1.62c0.83,0,1.24-0.43,1.24-1.03c0-0.61-0.39-1.06-1.2-1.06h-1.66V34.59z"/>
	<path class="st0" d="M243.44,31.28h1.52v7.51h-1.52V31.28z"/>
	<path class="st0" d="M245.74,31.28h6.04v1.28h-2.26v6.23H248v-6.23h-2.26V31.28z"/>
	<path class="st0" d="M254.61,35.88l-2.5-4.61h1.66l1.13,2.23c0.23,0.45,0.49,1.07,0.49,1.07h0.02c0,0,0.28-0.62,0.5-1.07l1.11-2.23
		h1.6l-2.5,4.61v2.9h-1.52V35.88z"/>
	<path class="st0" d="M150.81,41.78h3.44c1.45,0,2.41,0.84,2.41,2.09c0,0.88-0.41,1.55-1.38,1.82v0.03c0.69,0.2,1.05,0.6,1.14,1.51
		c0.1,1.06,0.06,1.87,0.33,1.98v0.07h-1.46c-0.19-0.08-0.21-0.92-0.27-1.73c-0.06-0.82-0.52-1.28-1.47-1.28h-1.23v3.01h-1.52V41.78z
		 M152.33,45.09h1.62c0.83,0,1.24-0.43,1.24-1.03c0-0.61-0.39-1.06-1.2-1.06h-1.66V45.09z"/>
	<path class="st0" d="M157.64,41.78h5.52v1.28h-4v1.68h3.51v1.25h-3.51v2.03h4.03v1.27h-5.55V41.78z"/>
	<path class="st0" d="M163.75,46.96h1.49c0.11,0.9,0.62,1.26,1.69,1.26c0.78,0,1.46-0.27,1.46-0.97c0-0.73-0.71-0.88-1.86-1.14
		c-1.34-0.3-2.57-0.66-2.57-2.22c0-1.48,1.21-2.25,2.88-2.25c1.69,0,2.78,0.83,2.9,2.34h-1.46c-0.08-0.76-0.67-1.13-1.45-1.13
		c-0.82,0-1.35,0.35-1.35,0.88c0,0.61,0.52,0.79,1.64,1.03c1.54,0.34,2.8,0.7,2.8,2.32c0,1.52-1.23,2.37-2.92,2.37
		C164.96,49.45,163.81,48.55,163.75,46.96z"/>
	<path class="st0" d="M170.51,45.54c0-2.25,1.41-3.92,3.62-3.92s3.61,1.67,3.61,3.92s-1.4,3.91-3.61,3.91S170.51,47.79,170.51,45.54
		z M176.19,45.54c0-1.5-0.67-2.67-2.05-2.67s-2.08,1.17-2.08,2.67c0,1.49,0.7,2.66,2.08,2.66S176.19,47.04,176.19,45.54z"/>
	<path class="st0" d="M178.51,46.87v-5.09h1.52v5.09c0,0.78,0.39,1.32,1.41,1.32c0.97,0,1.42-0.57,1.42-1.34v-5.07h1.52v5.09
		c0,1.61-0.99,2.54-2.91,2.54C179.53,49.41,178.51,48.5,178.51,46.87z"/>
	<path class="st0" d="M185.47,41.78h3.44c1.45,0,2.41,0.84,2.41,2.09c0,0.88-0.41,1.55-1.38,1.82v0.03c0.69,0.2,1.05,0.6,1.14,1.51
		c0.1,1.06,0.06,1.87,0.33,1.98v0.07h-1.46c-0.19-0.08-0.21-0.92-0.27-1.73c-0.06-0.82-0.52-1.28-1.47-1.28h-1.23v3.01h-1.52V41.78z
		 M186.99,45.09h1.62c0.83,0,1.24-0.43,1.24-1.03c0-0.61-0.39-1.06-1.2-1.06h-1.66V45.09z"/>
	<path class="st0" d="M191.98,45.56c0-2.23,1.39-3.93,3.6-3.93c1.85,0,2.94,1.1,3.1,2.53h-1.51c-0.14-0.76-0.7-1.25-1.58-1.25
		c-1.39,0-2.05,1.15-2.05,2.65c0,1.53,0.8,2.63,2.06,2.63c0.89,0,1.52-0.54,1.62-1.32h1.49c-0.04,0.66-0.33,1.3-0.83,1.77
		c-0.51,0.48-1.24,0.8-2.28,0.8C193.48,49.44,191.98,47.81,191.98,45.56z"/>
	<path class="st0" d="M199.49,41.78h5.52v1.28h-4v1.68h3.51v1.25h-3.51v2.03h4.03v1.27h-5.55V41.78z"/>
	<path class="st0" d="M207.42,45.56c0-2.23,1.39-3.93,3.6-3.93c1.85,0,2.94,1.1,3.1,2.53h-1.51c-0.14-0.76-0.7-1.25-1.58-1.25
		c-1.39,0-2.05,1.15-2.05,2.65c0,1.53,0.8,2.63,2.06,2.63c0.89,0,1.52-0.54,1.62-1.32h1.49c-0.04,0.66-0.33,1.3-0.83,1.77
		c-0.51,0.48-1.24,0.8-2.28,0.8C208.92,49.44,207.42,47.81,207.42,45.56z"/>
	<path class="st0" d="M214.93,41.78h5.52v1.28h-4v1.68h3.51v1.25h-3.51v2.03h4.03v1.27h-5.55V41.78z"/>
	<path class="st0" d="M221.43,41.78h1.54l2.5,4.19c0.24,0.41,0.53,1.05,0.53,1.05h0.02c0,0-0.04-0.78-0.04-1.3v-3.94h1.5v7.51h-1.47
		l-2.56-4.15c-0.24-0.4-0.54-1.04-0.54-1.04h-0.02c0,0,0.04,0.79,0.04,1.31v3.87h-1.5V41.78z"/>
	<path class="st0" d="M228.24,41.78h6.04v1.28h-2.26v6.23h-1.52v-6.23h-2.26V41.78z"/>
	<path class="st0" d="M235.05,41.78h5.52v1.28h-4v1.68h3.51v1.25h-3.51v2.03h4.03v1.27h-5.55V41.78z"/>
	<path class="st0" d="M241.55,41.78h3.44c1.45,0,2.42,0.84,2.42,2.09c0,0.88-0.41,1.55-1.38,1.82v0.03c0.69,0.2,1.05,0.6,1.14,1.51
		c0.11,1.06,0.06,1.87,0.33,1.98v0.07h-1.46c-0.19-0.08-0.21-0.92-0.27-1.73c-0.06-0.82-0.53-1.28-1.47-1.28h-1.23v3.01h-1.52V41.78
		z M243.07,45.09h1.62c0.83,0,1.24-0.43,1.24-1.03c0-0.61-0.39-1.06-1.2-1.06h-1.66V45.09z"/>
	<path class="st0" d="M150.65,56.02c0-2.2,1.32-3.92,3.56-3.92c1.75,0,2.81,1.01,3.01,2.39h-0.92c-0.18-0.93-0.92-1.58-2.11-1.58
		c-1.65,0-2.57,1.33-2.57,3.1c0,1.84,1.02,3.08,2.58,3.08c1.42,0,2.09-0.97,2.18-2.07h0.93c-0.01,0.75-0.37,1.59-0.9,2.11
		c-0.52,0.51-1.29,0.79-2.25,0.79C152.04,59.93,150.65,58.3,150.65,56.02z"/>
	<path class="st0" d="M157.91,57.24h0.92c0.13,1.27,0.9,1.93,2.32,1.93c1.04,0,1.78-0.47,1.78-1.41c0-1.03-0.9-1.27-2.25-1.56
		c-1.32-0.29-2.46-0.67-2.46-2.09c0-1.24,1.03-1.98,2.55-1.98c1.88,0,2.66,0.96,2.85,2.34h-0.89c-0.14-1.07-0.83-1.61-1.93-1.61
		c-1.02,0-1.69,0.43-1.69,1.21c0,0.85,0.84,1.1,1.96,1.32c1.46,0.29,2.79,0.65,2.79,2.34c0,1.41-1.14,2.19-2.76,2.19
		C159,59.93,157.99,58.75,157.91,57.24z"/>
	<path class="st0" d="M164.95,52.28h3.51c1.32,0,2.21,0.83,2.21,2.06c0,0.91-0.4,1.56-1.3,1.86v0.03c0.77,0.27,1.01,0.8,1.08,1.91
		c0.08,1.21,0.21,1.51,0.35,1.61v0.04h-1.02c-0.16-0.14-0.19-0.42-0.27-1.68c-0.07-1.1-0.51-1.49-1.52-1.49h-2.09v3.17h-0.94V52.28z
		 M165.9,55.85h2.23c1.05,0,1.58-0.53,1.58-1.38c0-0.91-0.42-1.38-1.52-1.38h-2.28V55.85z"/>
	<path class="st0" d="M171.54,56.02c0-2.2,1.32-3.92,3.56-3.92c1.75,0,2.81,1.01,3.01,2.39h-0.92c-0.18-0.93-0.92-1.58-2.11-1.58
		c-1.65,0-2.57,1.33-2.57,3.1c0,1.84,1.02,3.08,2.58,3.08c1.42,0,2.09-0.97,2.18-2.07h0.93c-0.01,0.75-0.37,1.59-0.9,2.11
		c-0.53,0.51-1.29,0.79-2.25,0.79C172.92,59.93,171.54,58.3,171.54,56.02z"/>
</g>
<polyline class="st1" points="142.28,22.98 142.28,28.23 146.98,31.29 142.28,34.36 142.28,60.42 "/>
<g>
	<g>
		<path class="st0" d="M34.87,56.75h-5.89V34.01c0,0.03,0-4.29,4.31-5.73c3.89-1.25,6.49,1.26,6.49,1.26l19.41,20.99
			c0.97,0.6,1.37-0.02,1.36-0.6V28.29h5.94v22.58c-0.03,1.92-1.62,4.31-3.87,5.24c-2.31,0.9-4.85,0.89-7.85-1.64L36.61,34.72
			c-0.48-0.51-1.73-0.57-1.75,0.44V56.75L34.87,56.75z"/>
		<path class="st0" d="M70.31,28.29h5.94v20.4c-0.02,2.17,1.8,2.17,3.6,2.18h26.39c1.1-0.01,2.35-1.31,2.35-2.62
			c0.01-1.36-1.27-2.73-2.46-2.73H88.96c-2.95,0.11-9.09-2.62-9.11-8.4c0.02-7.06,5.81-8.65,8.46-8.83h48.59v6h-12.16v22.47h-5.89
			V34.29H89.07c-2.83-0.25-4.88,4.64-0.22,5.34h18.27c2.75-0.02,7.29,2.36,7.31,8.29c-0.02,6-3.54,8.84-7.31,8.83H80.13
			c-4.46,0.01-6.06-1.01-7.63-2.51c-1.46-1.44-1.71-2.25-2.18-5.24V28.29L70.31,28.29z"/>
	</g>
</g>
</svg>
