<svg xmlns="http://www.w3.org/2000/svg" viewBox="0 0 140 32" width="140" height="32" aria-labelledby="nist-logo-title" role="img">
  <title id="nist-logo-title">National Institute of Standards and Technology</title>
  <g fill="#000000">
    <path d="M20.911 5.375l-9.482 9.482 9.482 9.482c0.446 0.446 0.446 1.161 0 1.607l-2.964 2.964c-0.446 0.446-1.161 0.446-1.607 0l-13.25-13.25c-0.446-0.446-0.446-1.161 0-1.607l13.25-13.25c0.446-0.446 1.161-0.446 1.607 0l2.964 2.964c0.446 0.446 0.446 1.161 0 1.607z"/>
    <g transform="translate(267,-385.7)">
      <path d="M-231 415h-6v-23.1s0-4.4 4.4-5.8c4-1.3 6.6 1.3 6.6 1.3l19.7 21.3c1 .6 1.4 0 1.4-.6v-22h6.1V409c0 1.9-1.6 4.4-4 5.3s-4.9.9-7.9-1.7l-18.5-20c-.5-.5-1.8-.6-1.8.4V415z"/>
      <path d="M-195 386.1h6.1v20.7c0 2.2 1.9 2.2 3.6 2.2h26.8c1.1 0 2.4-1.3 2.4-2.7 0-1.4-1.3-2.8-2.5-2.8H-176c-3 .1-9.2-2.7-9.2-8.5 0-7.1 5.9-8.8 8.6-9h49.4v6.1h-12.3V415h-6v-22.9h-30.2c-2.9-.2-4.9 4.7-.2 5.4h18.6c2.8 0 7.4 2.4 7.5 8.4 0 6.1-3.6 9-7.5 9H-185c-4.5 0-6.2-1.1-7.8-2.5-1.5-1.5-1.7-2.3-2.2-5.3l0-20.9z"/>
    </g>
  </g>
</svg>