<?xml version="1.0" encoding="UTF-8" standalone="no"?>
<!DOCTYPE svg PUBLIC "-//W3C//DTD SVG 1.1//EN" "http://www.w3.org/Graphics/SVG/1.1/DTD/svg11.dtd">
<svg width="100%" height="100%" viewBox="0 0 573 625" version="1.1" xmlns="http://www.w3.org/2000/svg" xmlns:xlink="http://www.w3.org/1999/xlink" xml:space="preserve" xmlns:serif="http://www.serif.com/" style="fill-rule:evenodd;clip-rule:evenodd;">
    <g transform="matrix(0.866025,0.5,-0.5,0.866025,324.405,-506.439)">
        <path d="M554.51,953.09C554.51,966.234 543.694,977.05 530.55,977.05L222.55,977.05C209.406,977.05 198.59,966.234 198.59,953.09L198.59,503.17C198.59,490.026 209.406,479.21 222.55,479.21L530.55,479.21C543.694,479.21 554.51,490.026 554.51,503.17L554.51,953.09Z" style="fill:white;fill-rule:nonzero;"/>
        <path d="M571.177,953.09C571.177,975.377 552.837,993.717 530.55,993.717L222.55,993.717C200.263,993.717 181.923,975.377 181.923,953.09L181.923,503.17C181.923,480.883 200.263,462.543 222.55,462.543L530.55,462.543C552.837,462.543 571.177,480.883 571.177,503.17L571.177,953.09ZM554.51,953.09L554.51,503.17C554.51,490.026 543.694,479.21 530.55,479.21L222.55,479.21C209.406,479.21 198.59,490.026 198.59,503.17L198.59,953.09C198.59,966.234 209.406,977.05 222.55,977.05L530.55,977.05C543.694,977.05 554.51,966.234 554.51,953.09Z" style="fill:rgb(11,43,84);"/>
    </g>
    <g transform="matrix(2.1512,1.242,-0.5,0.866025,-440.414,-718.43)">
        <path d="M519.94,568.63L519.94,581.23C519.94,583.548 519.182,585.43 518.249,585.43L403.571,585.43C402.638,585.43 401.88,583.548 401.88,581.23L401.88,568.63C401.88,566.312 402.638,564.43 403.571,564.43L518.249,564.43C519.182,564.43 519.94,566.312 519.94,568.63Z" style="fill:rgb(174,182,193);"/>
    </g>
    <g transform="matrix(2.1512,1.242,-0.5,0.866025,-423.079,-748.975)">
        <path d="M519.94,568.63L519.94,581.23C519.94,583.548 519.182,585.43 518.249,585.43L403.571,585.43C402.638,585.43 401.88,583.548 401.88,581.23L401.88,568.63C401.88,566.312 402.638,564.43 403.571,564.43L518.249,564.43C519.182,564.43 519.94,566.312 519.94,568.63Z" style="fill:rgb(174,182,193);"/>
    </g>
    <g transform="matrix(0.866025,0.5,-0.5,0.866025,324.405,-506.439)">
        <path d="M380.55,677.62C377.883,674.247 374.777,671.893 371.23,670.56C347.843,661.807 334.24,656.667 330.42,655.14C323.29,652.28 323.66,644.4 324.25,637.59C324.288,637.152 324.48,636.743 324.79,636.44C330.637,630.653 334.573,623.71 336.6,615.61C336.691,615.239 336.992,614.954 337.37,614.88C340.077,614.34 341.867,612.617 342.74,609.71C344.187,604.917 345.17,599.767 345.69,594.26C345.99,591.02 345.68,587.73 342.79,585.91C342.483,585.712 342.313,585.36 342.35,585C343.363,575.033 343.803,568.993 343.67,566.88C342.97,555.58 338.263,546.677 329.55,540.17C322.01,534.55 313.27,532.97 303.75,532.86C283.33,532.64 266.18,543.92 264.1,565.3C263.907,567.293 264,570.59 264.38,575.19C264.833,580.73 265.127,584 265.26,585C265.296,585.318 265.152,585.628 264.89,585.8C261.64,587.9 261.61,591.73 262.01,595.25C262.59,600.297 263.513,605.03 264.78,609.45C265.627,612.423 267.467,614.237 270.3,614.89C270.637,614.965 270.905,615.229 270.99,615.57C273.003,623.683 276.97,630.67 282.89,636.53C283.185,636.819 283.36,637.212 283.38,637.63C283.71,645.1 284.12,652.47 277.2,655.13C271.18,657.437 257.357,662.62 235.73,670.68C232.057,672.047 229.037,674.597 226.67,678.33" style="fill:none;fill-rule:nonzero;stroke:rgb(131,142,156);stroke-width:2px;"/>
    </g>
    <g transform="matrix(0.866025,0.5,-0.5,0.866025,324.405,-506.439)">
        <path d="M380.55,677.62C377.883,674.247 374.777,671.893 371.23,670.56C347.843,661.807 334.24,656.667 330.42,655.14C323.29,652.28 323.66,644.4 324.25,637.59C324.288,637.152 324.48,636.743 324.79,636.44C330.637,630.653 334.573,623.71 336.6,615.61C336.691,615.239 336.992,614.954 337.37,614.88C340.077,614.34 341.867,612.617 342.74,609.71C344.187,604.917 345.17,599.767 345.69,594.26C345.99,591.02 345.68,587.73 342.79,585.91C342.483,585.712 342.313,585.36 342.35,585C343.363,575.033 343.803,568.993 343.67,566.88C342.97,555.58 338.263,546.677 329.55,540.17C322.01,534.55 313.27,532.97 303.75,532.86C283.33,532.64 266.18,543.92 264.1,565.3C263.907,567.293 264,570.59 264.38,575.19C264.833,580.73 265.127,584 265.26,585C265.296,585.318 265.152,585.628 264.89,585.8C261.64,587.9 261.61,591.73 262.01,595.25C262.59,600.297 263.513,605.03 264.78,609.45C265.627,612.423 267.467,614.237 270.3,614.89C270.637,614.965 270.905,615.229 270.99,615.57C273.003,623.683 276.97,630.67 282.89,636.53C283.185,636.819 283.36,637.212 283.38,637.63C283.71,645.1 284.12,652.47 277.2,655.13C271.18,657.437 257.357,662.62 235.73,670.68C232.057,672.047 229.037,674.597 226.67,678.33C226.443,675.537 226.327,672.76 226.32,670C226.087,615.707 226.053,565.207 226.22,518.5C226.22,517.133 226.663,515.877 227.55,514.73C230.79,510.51 234.42,510.92 240.22,510.92C323.78,510.927 367.473,510.927 371.3,510.92C375.293,510.913 378.1,512.253 379.72,514.94C380.673,516.52 381.15,519.673 381.15,524.4C381.163,579.693 381.127,627.643 381.04,668.25C381.033,671.317 380.87,674.44 380.55,677.62Z" style="fill:rgb(206,213,221);fill-rule:nonzero;"/>
    </g>
    <g transform="matrix(0.866025,0.5,-0.5,0.866025,324.405,-506.439)">
        <path d="M380.55,677.62C381.23,684.82 381.413,692.227 381.1,699.84C381.087,700.132 381.036,700.421 380.95,700.7C380.017,703.847 378.263,706.093 375.69,707.44C374.443,708.087 371.597,708.403 367.15,708.39C321.603,708.21 279.347,708.193 240.38,708.34C235.827,708.353 232.68,707.85 230.94,706.83C228.087,705.163 226.55,702.47 226.33,698.75C226.103,694.923 226.217,688.117 226.67,678.33C229.037,674.597 232.057,672.047 235.73,670.68C257.357,662.62 271.18,657.437 277.2,655.13C284.12,652.47 283.71,645.1 283.38,637.63C283.36,637.212 283.185,636.819 282.89,636.53C276.97,630.67 273.003,623.683 270.99,615.57C270.905,615.229 270.637,614.965 270.3,614.89C267.467,614.237 265.627,612.423 264.78,609.45C263.513,605.03 262.59,600.297 262.01,595.25C261.61,591.73 261.64,587.9 264.89,585.8C265.152,585.628 265.296,585.318 265.26,585C265.127,584 264.833,580.73 264.38,575.19C264,570.59 263.907,567.293 264.1,565.3C266.18,543.92 283.33,532.64 303.75,532.86C313.27,532.97 322.01,534.55 329.55,540.17C338.263,546.677 342.97,555.58 343.67,566.88C343.803,568.993 343.363,575.033 342.35,585C342.313,585.36 342.483,585.712 342.79,585.91C345.68,587.73 345.99,591.02 345.69,594.26C345.17,599.767 344.187,604.917 342.74,609.71C341.867,612.617 340.077,614.34 337.37,614.88C336.992,614.954 336.691,615.239 336.6,615.61C334.573,623.71 330.637,630.653 324.79,636.44C324.48,636.743 324.288,637.152 324.25,637.59C323.66,644.4 323.29,652.28 330.42,655.14C334.24,656.667 347.843,661.807 371.23,670.56C374.777,671.893 377.883,674.247 380.55,677.62Z" style="fill:rgb(56,71,90);fill-rule:nonzero;"/>
    </g>
    <g transform="matrix(0.866025,0.5,-0.5,0.866025,324.855,-507.218)">
        <path d="M519.94,568.63L519.94,581.23C519.94,583.548 518.058,585.43 515.74,585.43L406.08,585.43C403.762,585.43 401.88,583.548 401.88,581.23L401.88,568.63C401.88,566.312 403.762,564.43 406.08,564.43L515.74,564.43C518.058,564.43 519.94,566.312 519.94,568.63Z" style="fill:rgb(174,182,193);"/>
    </g>
    <g transform="matrix(0.866025,0.5,-0.5,0.866025,324.855,-507.218)">
        <path d="M519.98,603.69L519.98,616.55C519.98,618.835 518.125,620.69 515.84,620.69L406.04,620.69C403.755,620.69 401.9,618.835 401.9,616.55L401.9,603.69C401.9,601.405 403.755,599.55 406.04,599.55L515.84,599.55C518.125,599.55 519.98,601.405 519.98,603.69Z" style="fill:rgb(174,182,193);"/>
    </g>
    <g transform="matrix(0.866897,0.498488,-0.498488,0.866897,384.71,270.331)">
        <path d="M38.71,-4.99L38.71,4.99C38.71,6.911 37.151,8.47 35.23,8.47L-35.23,8.47C-37.151,8.47 -38.71,6.911 -38.71,4.99L-38.71,-4.99C-38.71,-6.911 -37.151,-8.47 -35.23,-8.47L35.23,-8.47C37.151,-8.47 38.71,-6.911 38.71,-4.99Z" style="fill:rgb(174,182,193);"/>
    </g>
    <g transform="matrix(0.5,-0.866025,0.866025,0.5,-671.427,261.453)">
        <path d="M327.41,848.94C327.41,854.212 323.072,858.55 317.8,858.55L248.42,858.55C243.148,858.55 238.81,854.212 238.81,848.94L238.81,798.64C238.81,793.368 243.148,789.03 248.42,789.03L317.8,789.03C323.072,789.03 327.41,793.368 327.41,798.64L327.41,848.94Z" style="fill:rgb(187,131,27);fill-rule:nonzero;"/>
    </g>
    <g transform="matrix(0.5,-0.866025,0.866025,0.5,-671.427,261.453)">
        <path d="M325.41,812.77C325.39,812.938 325.244,813.067 325.07,813.07L297.57,813.23C297.567,813.23 297.563,813.23 297.56,813.23C297.192,813.23 296.89,812.928 296.89,812.56C296.89,812.56 296.91,791.96 296.91,791.96C296.91,791.521 297.276,791.16 297.72,791.16C304.78,791.153 311.2,791.1 316.98,791C322.91,790.92 325.44,793.65 325.45,799.91C325.443,808.31 325.43,812.597 325.41,812.77Z" style="fill:rgb(252,198,72);fill-rule:nonzero;"/>
    </g>
    <g transform="matrix(0.498488,-0.866897,0.866897,0.498488,183.591,427.96)">
        <path d="M12.16,-31.64L12.16,31.64C12.16,32.153 11.743,32.57 11.23,32.57L-11.23,32.57C-11.743,32.57 -12.16,32.153 -12.16,31.64L-12.16,-31.64C-12.16,-32.153 -11.743,-32.57 -11.23,-32.57L11.23,-32.57C11.743,-32.57 12.16,-32.153 12.16,-31.64Z" style="fill:rgb(252,198,72);"/>
    </g>
    <g transform="matrix(0.5,-0.866025,0.866025,0.5,-671.427,261.453)">
        <path d="M240.94,812.97C240.92,812.797 240.897,808.503 240.87,800.09C240.85,793.83 243.39,791.09 249.31,791.16C255.097,791.24 261.523,791.273 268.59,791.26C268.592,791.26 268.595,791.26 268.597,791.26C269.042,791.258 269.408,791.618 269.41,792.057C269.41,792.058 269.41,792.059 269.41,792.06L269.48,812.67C269.48,813.039 269.179,813.345 268.81,813.35L241.29,813.27C241.112,813.272 240.96,813.142 240.94,812.97Z" style="fill:rgb(252,198,72);fill-rule:nonzero;"/>
    </g>
    <g transform="matrix(0.498488,-0.866897,0.866897,0.498488,197.612,403.873)">
        <path d="M14.19,-8.52L14.19,8.52C14.19,8.73 14.02,8.9 13.81,8.9L-13.81,8.9C-14.02,8.9 -14.19,8.73 -14.19,8.52L-14.19,-8.52C-14.19,-8.73 -14.02,-8.9 -13.81,-8.9L13.81,-8.9C14.02,-8.9 14.19,-8.73 14.19,-8.52Z" style="fill:rgb(252,198,72);"/>
    </g>
    <g transform="matrix(0.501511,-0.865151,0.865151,0.501511,169.581,452.364)">
        <path d="M14.32,-8.42L14.32,8.42C14.32,8.597 14.177,8.74 14,8.74L-14,8.74C-14.177,8.74 -14.32,8.597 -14.32,8.42L-14.32,-8.42C-14.32,-8.597 -14.177,-8.74 -14,-8.74L14,-8.74C14.177,-8.74 14.32,-8.597 14.32,-8.42Z" style="fill:rgb(252,198,72);"/>
    </g>
    <g transform="matrix(0.5,-0.866025,0.866025,0.5,-671.427,261.453)">
        <path d="M325.62,834.68C325.64,834.853 325.65,839.177 325.65,847.65C325.64,853.96 323.08,856.71 317.11,856.62C311.283,856.52 304.81,856.463 297.69,856.45C297.24,856.45 296.87,856.084 296.87,855.64L296.87,834.88C296.87,834.507 297.177,834.2 297.55,834.2L325.27,834.38C325.445,834.378 325.595,834.507 325.62,834.68Z" style="fill:rgb(252,198,72);fill-rule:nonzero;"/>
    </g>
    <g transform="matrix(0.5,-0.866025,0.866025,0.5,-671.427,261.453)">
        <path d="M241.03,834.68C241.055,834.512 241.206,834.388 241.38,834.39L268.84,834.34C269.208,834.34 269.51,834.642 269.51,835.01L269.41,855.58C269.41,855.581 269.41,855.583 269.41,855.584C269.408,856.022 269.043,856.38 268.6,856.38C261.547,856.36 255.133,856.383 249.36,856.45C243.45,856.51 240.92,853.78 240.94,847.53C240.98,839.137 241.01,834.853 241.03,834.68Z" style="fill:rgb(252,198,72);fill-rule:nonzero;"/>
    </g>
    <g transform="matrix(0.523239,0.302092,-0.528571,0.915513,549.809,-485.169)">
        <path d="M519.94,568.403L519.94,581.457C519.94,583.65 516.825,585.43 512.988,585.43L408.832,585.43C404.995,585.43 401.88,583.65 401.88,581.457L401.88,568.403C401.88,566.21 404.995,564.43 408.832,564.43L512.988,564.43C516.825,564.43 519.94,566.21 519.94,568.403Z" style="fill:rgb(174,182,193);"/>
    </g>
</svg>
