<?xml version="1.0" encoding="UTF-8"?><svg id="Layer_1" xmlns="http://www.w3.org/2000/svg" viewBox="0 0 261.3 38.45"><defs><style>.cls-1{fill:#231f20;}.cls-2{fill:none;stroke:#231f20;stroke-linecap:round;stroke-linejoin:round;stroke-width:1.01px;}</style></defs><g><path class="cls-1" d="M121.51,12.58c0-2.23,1.39-3.93,3.6-3.93,1.85,0,2.94,1.1,3.1,2.53h-1.51c-.14-.76-.7-1.25-1.58-1.25-1.39,0-2.05,1.15-2.05,2.65s.8,2.63,2.06,2.63c.89,0,1.52-.54,1.62-1.32h1.49c-.04,.66-.33,1.3-.83,1.77-.51,.48-1.24,.8-2.28,.8-2.11,0-3.61-1.63-3.61-3.88Z"/><path class="cls-1" d="M128.69,12.57c0-2.25,1.41-3.92,3.62-3.92s3.61,1.67,3.61,3.92-1.4,3.91-3.61,3.91-3.62-1.66-3.62-3.91Zm5.68,0c0-1.5-.67-2.67-2.05-2.67s-2.08,1.17-2.08,2.67,.7,2.66,2.08,2.66,2.05-1.17,2.05-2.66Z"/><path class="cls-1" d="M136.75,8.8h2.14l1.06,3.77c.26,.95,.47,2.03,.47,2.03h.02s.2-1.08,.46-2.03l1.06-3.77h2.17v7.51h-1.42v-4.3c0-.61,.06-1.55,.06-1.55h-.02s-.17,.88-.33,1.43l-1.29,4.43h-1.46l-1.26-4.43c-.16-.54-.33-1.43-.33-1.43h-.02s.06,.95,.06,1.55v4.3h-1.4v-7.51Z"/><path class="cls-1" d="M145.3,8.8h3.3c.87,0,1.52,.25,1.96,.7,.42,.43,.67,1.02,.67,1.71,0,1.42-.93,2.37-2.51,2.37h-1.85v2.72h-1.58v-7.51Zm1.58,3.55h1.57c.8,0,1.22-.44,1.22-1.12s-.44-1.1-1.2-1.1h-1.6v2.23Z"/><path class="cls-1" d="M151.98,13.89v-5.09h1.52v5.09c0,.78,.39,1.32,1.41,1.32s1.42-.57,1.42-1.34v-5.07h1.52v5.09c0,1.61-.99,2.54-2.91,2.54s-2.96-.91-2.96-2.54Z"/><path class="cls-1" d="M158.55,8.8h6.04v1.28h-2.26v6.23h-1.52v-6.23h-2.26v-1.28Z"/><path class="cls-1" d="M165.35,8.8h5.52v1.28h-4v1.68h3.51v1.25h-3.51v2.03h4.03v1.27h-5.55v-7.51Z"/><path class="cls-1" d="M171.85,8.8h3.44c1.45,0,2.41,.84,2.41,2.09,0,.88-.41,1.55-1.38,1.82v.03c.69,.2,1.05,.6,1.14,1.51,.1,1.06,.06,1.87,.33,1.98v.07h-1.46c-.19-.08-.21-.92-.27-1.73-.06-.82-.52-1.28-1.47-1.28h-1.23v3.01h-1.52v-7.51Zm1.52,3.32h1.62c.83,0,1.24-.43,1.24-1.03s-.39-1.06-1.2-1.06h-1.66v2.09Z"/><path class="cls-1" d="M180.12,13.99h1.49c.1,.9,.62,1.26,1.69,1.26,.78,0,1.46-.27,1.46-.97,0-.73-.71-.88-1.86-1.14-1.34-.3-2.57-.66-2.57-2.22,0-1.48,1.21-2.25,2.88-2.25s2.78,.83,2.9,2.34h-1.46c-.08-.76-.67-1.13-1.45-1.13-.82,0-1.35,.35-1.35,.88,0,.61,.53,.79,1.64,1.03,1.54,.34,2.8,.7,2.8,2.32,0,1.52-1.23,2.37-2.92,2.37-2.04,0-3.19-.9-3.24-2.49Z"/><path class="cls-1" d="M187.19,8.8h5.52v1.28h-4v1.68h3.51v1.25h-3.51v2.03h4.03v1.27h-5.55v-7.51Z"/><path class="cls-1" d="M193.21,12.58c0-2.23,1.39-3.93,3.6-3.93,1.85,0,2.94,1.1,3.1,2.53h-1.51c-.14-.76-.7-1.25-1.59-1.25-1.39,0-2.05,1.15-2.05,2.65s.8,2.63,2.06,2.63c.89,0,1.52-.54,1.62-1.32h1.49c-.04,.66-.33,1.3-.83,1.77-.51,.48-1.24,.8-2.28,.8-2.11,0-3.61-1.63-3.61-3.88Z"/><path class="cls-1" d="M200.65,13.89v-5.09h1.52v5.09c0,.78,.39,1.32,1.41,1.32,.97,0,1.42-.57,1.42-1.34v-5.07h1.52v5.09c0,1.61-.99,2.54-2.91,2.54s-2.96-.91-2.96-2.54Z"/><path class="cls-1" d="M207.62,8.8h3.44c1.45,0,2.42,.84,2.42,2.09,0,.88-.41,1.55-1.38,1.82v.03c.69,.2,1.05,.6,1.14,1.51,.11,1.06,.06,1.87,.33,1.98v.07h-1.46c-.19-.08-.21-.92-.27-1.73-.06-.82-.53-1.28-1.47-1.28h-1.23v3.01h-1.52v-7.51Zm1.52,3.32h1.62c.83,0,1.24-.43,1.24-1.03s-.39-1.06-1.2-1.06h-1.66v2.09Z"/><path class="cls-1" d="M214.46,8.8h1.52v7.51h-1.52v-7.51Z"/><path class="cls-1" d="M216.76,8.8h6.04v1.28h-2.26v6.23h-1.52v-6.23h-2.26v-1.28Z"/><path class="cls-1" d="M225.63,13.41l-2.5-4.61h1.66l1.13,2.23c.23,.45,.49,1.07,.49,1.07h.02s.28-.62,.5-1.07l1.11-2.23h1.6l-2.5,4.61v2.9h-1.52v-2.9Z"/><path class="cls-1" d="M121.83,19.3h3.44c1.45,0,2.41,.84,2.41,2.09,0,.88-.41,1.55-1.38,1.82v.03c.69,.2,1.05,.6,1.14,1.51,.1,1.06,.06,1.87,.33,1.98v.07h-1.46c-.19-.08-.21-.92-.27-1.73-.06-.82-.52-1.28-1.47-1.28h-1.23v3.01h-1.52v-7.51Zm1.52,3.32h1.62c.83,0,1.24-.43,1.24-1.03s-.39-1.06-1.2-1.06h-1.66v2.09Z"/><path class="cls-1" d="M128.67,19.3h5.52v1.28h-4v1.68h3.51v1.25h-3.51v2.03h4.03v1.27h-5.55v-7.51Z"/><path class="cls-1" d="M134.78,24.49h1.49c.11,.9,.62,1.26,1.69,1.26,.78,0,1.46-.27,1.46-.97,0-.73-.71-.88-1.86-1.14-1.34-.3-2.57-.66-2.57-2.22,0-1.48,1.21-2.25,2.88-2.25s2.78,.83,2.9,2.34h-1.46c-.08-.76-.67-1.13-1.45-1.13-.82,0-1.35,.35-1.35,.88,0,.61,.52,.79,1.64,1.03,1.54,.34,2.8,.7,2.8,2.32,0,1.52-1.23,2.37-2.92,2.37-2.04,0-3.19-.9-3.24-2.49Z"/><path class="cls-1" d="M141.53,23.07c0-2.25,1.41-3.92,3.62-3.92s3.61,1.67,3.61,3.92-1.4,3.91-3.61,3.91-3.62-1.66-3.62-3.91Zm5.68,0c0-1.5-.67-2.67-2.05-2.67s-2.08,1.17-2.08,2.67,.7,2.66,2.08,2.66,2.05-1.17,2.05-2.66Z"/><path class="cls-1" d="M149.53,24.39v-5.09h1.52v5.09c0,.78,.39,1.32,1.41,1.32s1.42-.57,1.42-1.34v-5.07h1.52v5.09c0,1.61-.99,2.54-2.91,2.54s-2.96-.91-2.96-2.54Z"/><path class="cls-1" d="M156.49,19.3h3.44c1.45,0,2.41,.84,2.41,2.09,0,.88-.41,1.55-1.38,1.82v.03c.69,.2,1.05,.6,1.14,1.51,.1,1.06,.06,1.87,.33,1.98v.07h-1.46c-.19-.08-.21-.92-.27-1.73-.06-.82-.52-1.28-1.47-1.28h-1.23v3.01h-1.52v-7.51Zm1.52,3.32h1.62c.83,0,1.24-.43,1.24-1.03s-.39-1.06-1.2-1.06h-1.66v2.09Z"/><path class="cls-1" d="M163,23.08c0-2.23,1.39-3.93,3.6-3.93,1.85,0,2.94,1.1,3.1,2.53h-1.51c-.14-.76-.7-1.25-1.58-1.25-1.39,0-2.05,1.15-2.05,2.65s.8,2.63,2.06,2.63c.89,0,1.52-.54,1.62-1.32h1.49c-.04,.66-.33,1.3-.83,1.77-.51,.48-1.24,.8-2.28,.8-2.11,0-3.61-1.63-3.61-3.88Z"/><path class="cls-1" d="M170.51,19.3h5.52v1.28h-4v1.68h3.51v1.25h-3.51v2.03h4.03v1.27h-5.55v-7.51Z"/><path class="cls-1" d="M178.45,23.08c0-2.23,1.39-3.93,3.6-3.93,1.85,0,2.94,1.1,3.1,2.53h-1.51c-.14-.76-.7-1.25-1.58-1.25-1.39,0-2.05,1.15-2.05,2.65s.8,2.63,2.06,2.63c.89,0,1.52-.54,1.62-1.32h1.49c-.04,.66-.33,1.3-.83,1.77-.51,.48-1.24,.8-2.28,.8-2.11,0-3.61-1.63-3.61-3.88Z"/><path class="cls-1" d="M185.95,19.3h5.52v1.28h-4v1.68h3.51v1.25h-3.51v2.03h4.03v1.27h-5.55v-7.51Z"/><path class="cls-1" d="M192.45,19.3h1.54l2.5,4.19c.24,.41,.53,1.05,.53,1.05h.02s-.04-.78-.04-1.3v-3.94h1.5v7.51h-1.47l-2.56-4.15c-.24-.4-.54-1.04-.54-1.04h-.02s.04,.79,.04,1.31v3.87h-1.5v-7.51Z"/><path class="cls-1" d="M199.27,19.3h6.04v1.28h-2.26v6.23h-1.52v-6.23h-2.26v-1.28Z"/><path class="cls-1" d="M206.07,19.3h5.52v1.28h-4v1.68h3.51v1.25h-3.51v2.03h4.03v1.27h-5.55v-7.51Z"/><path class="cls-1" d="M212.57,19.3h3.44c1.45,0,2.42,.84,2.42,2.09,0,.88-.41,1.55-1.38,1.82v.03c.69,.2,1.05,.6,1.14,1.51,.11,1.06,.06,1.87,.33,1.98v.07h-1.46c-.19-.08-.21-.92-.27-1.73-.06-.82-.53-1.28-1.47-1.28h-1.23v3.01h-1.52v-7.51Zm1.52,3.32h1.62c.83,0,1.24-.43,1.24-1.03s-.39-1.06-1.2-1.06h-1.66v2.09Z"/><path class="cls-1" d="M121.67,33.55c0-2.2,1.32-3.92,3.56-3.92,1.75,0,2.81,1.01,3.01,2.39h-.92c-.18-.93-.92-1.58-2.11-1.58-1.65,0-2.57,1.33-2.57,3.1s1.02,3.08,2.58,3.08c1.42,0,2.09-.97,2.18-2.07h.93c-.01,.75-.37,1.59-.9,2.11-.52,.51-1.29,.79-2.25,.79-2.13,0-3.52-1.63-3.52-3.91Z"/><path class="cls-1" d="M128.93,34.77h.92c.13,1.27,.9,1.93,2.32,1.93,1.04,0,1.78-.47,1.78-1.41,0-1.03-.9-1.27-2.25-1.56-1.32-.29-2.46-.67-2.46-2.09,0-1.24,1.03-1.98,2.55-1.98,1.88,0,2.66,.96,2.85,2.34h-.89c-.14-1.07-.83-1.61-1.93-1.61-1.02,0-1.69,.43-1.69,1.21,0,.85,.84,1.1,1.96,1.32,1.46,.29,2.79,.65,2.79,2.34,0,1.41-1.14,2.19-2.76,2.19-2.11,0-3.12-1.18-3.2-2.69Z"/><path class="cls-1" d="M135.98,29.8h3.51c1.32,0,2.21,.83,2.21,2.06,0,.91-.4,1.56-1.3,1.86v.03c.77,.27,1.01,.8,1.08,1.91,.08,1.21,.21,1.51,.35,1.61v.04h-1.02c-.16-.14-.19-.42-.27-1.68-.07-1.1-.51-1.49-1.52-1.49h-2.09v3.17h-.94v-7.51Zm.94,3.57h2.23c1.05,0,1.58-.53,1.58-1.38,0-.91-.42-1.38-1.52-1.38h-2.28v2.75Z"/><path class="cls-1" d="M142.56,33.55c0-2.2,1.32-3.92,3.56-3.92,1.75,0,2.81,1.01,3.01,2.39h-.92c-.18-.93-.92-1.58-2.11-1.58-1.65,0-2.57,1.33-2.57,3.1s1.02,3.08,2.58,3.08c1.42,0,2.09-.97,2.18-2.07h.93c-.01,.75-.37,1.59-.9,2.11-.53,.51-1.29,.79-2.25,.79-2.13,0-3.52-1.63-3.52-3.91Z"/></g><polyline class="cls-2" points="113.3 .5 113.3 5.75 118.01 8.82 113.3 11.89 113.3 37.94"/><g><path class="cls-1" d="M5.89,34.28H0V11.54S0,7.25,4.31,5.81c3.89-1.25,6.49,1.26,6.49,1.26L30.21,28.06c.97,.6,1.37-.02,1.36-.6V5.81h5.94V28.39c-.03,1.92-1.62,4.31-3.87,5.24-2.31,.9-4.85,.89-7.85-1.64L7.63,12.25c-.48-.51-1.73-.57-1.75,.44v21.59h0Z"/><path class="cls-1" d="M41.33,5.81h5.94V26.21c-.02,2.17,1.8,2.17,3.6,2.18h26.39c1.1,0,2.35-1.31,2.35-2.62,0-1.36-1.27-2.73-2.46-2.73h-17.18c-2.95,.11-9.09-2.62-9.11-8.4,.02-7.06,5.81-8.65,8.46-8.83h48.59v6h-12.16v22.47h-5.89V11.81h-29.77c-2.83-.25-4.88,4.64-.22,5.34h18.27c2.75-.02,7.29,2.36,7.31,8.29-.02,6-3.54,8.84-7.31,8.83h-26.99c-4.46,0-6.06-1.01-7.63-2.51-1.46-1.44-1.71-2.25-2.18-5.24V5.81h0Z"/></g></svg>